# xmcd CD database file
#
# Track frame offsets:
#	150
#	12888
#	24296
#	45622
#	57956
#	79955
#	93620
#	106114
#	119987
#	132464
#	144069
#	157979
#	174420
#	190500
#	210980
#	237344
#	247612
#	261891
#	277629
#	295477
#	314076
#	324706
#
# Disc length: 4650 seconds
#
# Revision: 0
# Processed by: cddbd v1.5.2PL0 Copyright (c) Steve Scherf et al.
# Submitted via: CDex 1.51
#
DISCID=2d122816
DTITLE=Various Artist - New Folk Sounds - The Best Of Alternative Country [CD2]
DYEAR=2008
DGENRE=Country
TTITLE0=Calexico - Bisbee Blues
TTITLE1=Josh Rouse - Quiet Town
TTITLE2=Lucinda Williams - Car Wheels On A Gravel Road
TTITLE3=Neko Case - Hold On, Hold On
TTITLE4=Drive-By Truckers - Dead, Drunk And Naked
TTITLE5=Kings Of Leon - Red Morning Light
TTITLE6=Whiskeytown - Crazy About You
TTITLE7=The McClymonts - Baby's Gone Home
TTITLE8=Adam Green - Emily
TTITLE9=Steve Earle - Guitar Town
TTITLE10=Old Crow Medicine Show - I Hear Them All
TTITLE11=The Avett Brothers - Paranoia In B-Major
TTITLE12=The Handsome Family - After We Shot The Grizzly
TTITLE13=Mary Gauthier - I Drink
TTITLE14=Teddy Thompson - Down Low
TTITLE15=The Sadies - 1000 Cities Falling (Part 1)
TTITLE16=Whitley - Lost In Time
TTITLE17=Glen Phillips - Courage
TTITLE18=Kim Richey - A Place Called Home
TTITLE19=Earl Gray - Katrina
TTITLE20=J.J. Cale - My Baby and Me
TTITLE21=Stephanie Dosen - This Joy
EXTD=YEAR: 2008
EXTT0=
EXTT1=
EXTT2=
EXTT3=
EXTT4=
EXTT5=
EXTT6=
EXTT7=
EXTT8=
EXTT9=
EXTT10=
EXTT11=
EXTT12=
EXTT13=
EXTT14=
EXTT15=
EXTT16=
EXTT17=
EXTT18=
EXTT19=
EXTT20=
EXTT21=
PLAYORDER=
